<?xml version="1.0" encoding="UTF-8"?>
<!DOCTYPE svg PUBLIC "-//W3C//DTD SVG 1.1//EN" "http://www.w3.org/Graphics/SVG/1.1/DTD/svg11.dtd">
<svg xmlns="http://www.w3.org/2000/svg" version="1.1" width="190px" height="65px" style="shape-rendering:geometricPrecision; text-rendering:geometricPrecision; image-rendering:optimizeQuality; fill-rule:evenodd; clip-rule:evenodd" xmlns:xlink="http://www.w3.org/1999/xlink">
<g><path style="opacity:0.52" fill="#fefffe" d="M 15.5,8.5 C 23.1667,8.5 30.8333,8.5 38.5,8.5C 38.5,10.1667 38.5,11.8333 38.5,13.5C 30.8333,13.5 23.1667,13.5 15.5,13.5C 15.5,11.8333 15.5,10.1667 15.5,8.5 Z"/></g>
<g><path style="opacity:0.47" fill="#fefffe" d="M 53.5,20.5 C 50.0419,18.4844 49.7086,15.9844 52.5,13C 55.6489,11.9654 58.3156,12.6321 60.5,15C 58.5653,16.2384 56.5653,16.7384 54.5,16.5C 59.8025,17.2614 61.3025,19.928 59,24.5C 56.5991,25.6023 54.0991,25.769 51.5,25C 50.6198,23.6439 50.2865,22.1439 50.5,20.5C 51.5,20.5 52.5,20.5 53.5,20.5 Z M 53.5,20.5 C 54.7562,20.4614 55.7562,20.9614 56.5,22C 55.0024,22.5847 54.0024,22.0847 53.5,20.5 Z"/></g>
<g><path style="opacity:0.567" fill="#fefffe" d="M 61.5,12.5 C 64.1667,12.5 66.8333,12.5 69.5,12.5C 69.5,13.5 69.5,14.5 69.5,15.5C 62.8333,16.1667 62.8333,16.8333 69.5,17.5C 69.5,18.5 69.5,19.5 69.5,20.5C 62.8333,21.1667 62.8333,21.8333 69.5,22.5C 69.5,23.5 69.5,24.5 69.5,25.5C 66.8333,25.5 64.1667,25.5 61.5,25.5C 61.5,21.1667 61.5,16.8333 61.5,12.5 Z"/></g>
<g><path style="opacity:0.513" fill="#fefffe" d="M 70.5,12.5 C 73.5,12.5 76.5,12.5 79.5,12.5C 79.5,13.5 79.5,14.5 79.5,15.5C 77.712,15.2148 76.0453,15.5481 74.5,16.5C 75.6888,17.4287 77.0222,17.762 78.5,17.5C 78.5,18.5 78.5,19.5 78.5,20.5C 77.0222,20.238 75.6888,20.5713 74.5,21.5C 76.0453,22.4519 77.712,22.7852 79.5,22.5C 79.5,23.5 79.5,24.5 79.5,25.5C 76.5,25.5 73.5,25.5 70.5,25.5C 70.5,21.1667 70.5,16.8333 70.5,12.5 Z"/></g>
<g><path style="opacity:0.519" fill="#fefffe" d="M 80.5,12.5 C 83.7766,12.2161 86.9433,12.5495 90,13.5C 90.711,15.8991 90.5443,18.2324 89.5,20.5C 90,21.5 90.5,22.5 91,23.5C 92.9574,19.9842 94.4574,16.3176 95.5,12.5C 96.8333,12.5 98.1667,12.5 99.5,12.5C 100.556,16.168 101.722,19.8347 103,23.5C 103.388,22.572 104.055,21.9054 105,21.5C 106.15,22.4239 107.15,22.4239 108,21.5C 108.446,18.3384 107.946,15.3384 106.5,12.5C 108.833,12.5 111.167,12.5 113.5,12.5C 112.389,16.793 111.055,20.9596 109.5,25C 106.852,25.0988 104.352,25.2654 102,25.5C 100.333,24.5 98.6667,23.5 97,22.5C 92.756,26.8104 88.9226,26.4771 85.5,21.5C 84.5713,22.6888 84.238,24.0222 84.5,25.5C 83.1779,25.67 82.0113,25.3366 81,24.5C 80.5012,20.5138 80.3345,16.5138 80.5,12.5 Z M 84.5,15.5 C 86.9828,15.73 87.4828,16.3966 86,17.5C 84.9701,17.1639 84.4701,16.4972 84.5,15.5 Z"/></g>
<g><path style="opacity:0.541" fill="#fefffe" d="M 119.5,12.5 C 120.5,12.5 121.5,12.5 122.5,12.5C 122.5,15.8333 122.5,19.1667 122.5,22.5C 124.167,22.5 125.833,22.5 127.5,22.5C 127.5,23.5 127.5,24.5 127.5,25.5C 124.833,25.5 122.167,25.5 119.5,25.5C 119.5,21.1667 119.5,16.8333 119.5,12.5 Z"/></g>
<g><path style="opacity:0.527" fill="#fefffe" d="M 128.5,12.5 C 131.5,12.5 134.5,12.5 137.5,12.5C 137.5,13.5 137.5,14.5 137.5,15.5C 135.712,15.2148 134.045,15.5481 132.5,16.5C 133.689,17.4287 135.022,17.762 136.5,17.5C 136.5,18.5 136.5,19.5 136.5,20.5C 135.022,20.238 133.689,20.5713 132.5,21.5C 134.045,22.4519 135.712,22.7852 137.5,22.5C 137.5,23.5 137.5,24.5 137.5,25.5C 134.552,25.7771 131.719,25.4438 129,24.5C 128.501,20.5138 128.334,16.5138 128.5,12.5 Z"/></g>
<g><path style="opacity:0.479" fill="#fefffe" d="M 141.5,12.5 C 143.857,12.3367 146.19,12.5034 148.5,13C 149.337,14.0113 149.67,15.1779 149.5,16.5C 147.425,16.3016 145.425,16.1349 143.5,16C 141.032,17.5883 140.866,19.4216 143,21.5C 143.49,20.2068 143.657,18.8734 143.5,17.5C 145.833,17.5 148.167,17.5 150.5,17.5C 150.34,19.1992 150.506,20.8659 151,22.5C 154.667,9.16667 158.333,9.16667 162,22.5C 162.498,19.1832 162.665,15.8499 162.5,12.5C 163.833,12.5 165.167,12.5 166.5,12.5C 166.5,15.8333 166.5,19.1667 166.5,22.5C 168.167,22.5 169.833,22.5 171.5,22.5C 171.5,23.5 171.5,24.5 171.5,25.5C 167.832,25.2496 164.332,25.2496 161,25.5C 159.503,24.5227 158.003,23.5227 156.5,22.5C 154.997,23.5227 153.497,24.5227 152,25.5C 150.848,23.4883 149.682,23.3217 148.5,25C 142.708,26.8711 139.041,24.8711 137.5,19C 138.25,16.4288 139.583,14.2622 141.5,12.5 Z"/></g>
<g><path style="opacity:0.541" fill="#fefffe" d="M 11.5,14.5 C 21.8333,14.5 32.1667,14.5 42.5,14.5C 42.5,16.1667 42.5,17.8333 42.5,19.5C 32.1667,19.5 21.8333,19.5 11.5,19.5C 11.5,17.8333 11.5,16.1667 11.5,14.5 Z"/></g>
<g><path style="opacity:0.721" fill="#fefffe" d="M 15.5,21.5 C 16.8333,21.5 18.1667,21.5 19.5,21.5C 19.6665,32.505 19.4998,43.505 19,54.5C 18.1667,55.5 17.3333,56.5 16.5,57.5C 15.501,45.5185 15.1677,33.5185 15.5,21.5 Z"/></g>
<g><path style="opacity:0.561" fill="#fefffe" d="M 21.5,21.5 C 23.1667,21.5 24.8333,21.5 26.5,21.5C 26.8314,30.1922 26.498,38.8589 25.5,47.5C 24.5,48.1667 23.5,48.8333 22.5,49.5C 21.5017,40.1904 21.1684,30.8571 21.5,21.5 Z"/></g>
<g><path style="opacity:0.663" fill="#fefffe" d="M 27.5,21.5 C 28.8333,21.5 30.1667,21.5 31.5,21.5C 31.6663,28.8409 31.4997,36.1742 31,43.5C 29.9887,44.3366 28.8221,44.67 27.5,44.5C 27.5,36.8333 27.5,29.1667 27.5,21.5 Z"/></g>
<g><path style="opacity:0.654" fill="#fefffe" d="M 34.5,21.5 C 35.8333,21.5 37.1667,21.5 38.5,21.5C 38.6662,27.5092 38.4995,33.5092 38,39.5C 37,40.1667 36,40.8333 35,41.5C 34.5004,34.8417 34.3337,28.175 34.5,21.5 Z"/></g>
<g><path style="opacity:0.306" fill="#fefffe" d="M 49.5,33.5 C 51.1667,33.5 52.8333,33.5 54.5,33.5C 54.7989,35.604 54.4656,37.604 53.5,39.5C 52.5,38.1667 51.5,38.1667 50.5,39.5C 49.5344,37.604 49.2011,35.604 49.5,33.5 Z"/></g>
<g><path style="opacity:0.259" fill="#fefffe" d="M 58.5,33.5 C 59.8333,33.5 61.1667,33.5 62.5,33.5C 62.5,35.5 62.5,37.5 62.5,39.5C 60.8333,39.5 59.1667,39.5 57.5,39.5C 57.3253,37.3792 57.6586,35.3792 58.5,33.5 Z"/></g>
<g><path style="opacity:0.289" fill="#fefffe" d="M 66.5,33.5 C 68.0348,34.8439 69.3681,36.5106 70.5,38.5C 69.3112,39.4287 67.9778,39.762 66.5,39.5C 66.5,37.5 66.5,35.5 66.5,33.5 Z"/></g>
<g><path style="opacity:0.273" fill="#fefffe" d="M 74.5,33.5 C 75.675,33.281 76.675,33.6143 77.5,34.5C 76.1667,35.8333 76.1667,37.1667 77.5,38.5C 76.1667,39.8333 74.8333,39.8333 73.5,38.5C 74.0258,36.7348 74.3592,35.0681 74.5,33.5 Z"/></g>
<g><path style="opacity:0.276" fill="#fefffe" d="M 81.5,33.5 C 82.8333,33.5 84.1667,33.5 85.5,33.5C 86.5749,37.938 84.9083,39.938 80.5,39.5C 80.3253,37.3792 80.6586,35.3792 81.5,33.5 Z"/></g>
<g><path style="opacity:0.275" fill="#fefffe" d="M 88.5,33.5 C 90.288,33.2148 91.9547,33.5481 93.5,34.5C 90.0169,41.3585 88.3502,41.0252 88.5,33.5 Z"/></g>
<g><path style="opacity:0.234" fill="#fefffe" d="M 96.5,33.5 C 98.1667,33.5 99.8333,33.5 101.5,33.5C 101.623,37.0399 99.9568,39.0399 96.5,39.5C 96.5,37.5 96.5,35.5 96.5,33.5 Z"/></g>
<g><path style="opacity:0.28" fill="#fefffe" d="M 104.5,33.5 C 109.667,32.4919 111.334,34.3252 109.5,39C 107.866,39.4935 106.199,39.6602 104.5,39.5C 104.5,37.5 104.5,35.5 104.5,33.5 Z"/></g>
<g><path style="opacity:0.298" fill="#fefffe" d="M 113.5,33.5 C 115.045,34.2297 115.878,35.563 116,37.5C 116.219,36.062 116.719,34.7287 117.5,33.5C 118.466,35.396 118.799,37.396 118.5,39.5C 116.833,39.5 115.167,39.5 113.5,39.5C 113.5,37.5 113.5,35.5 113.5,33.5 Z"/></g>
<g><path style="opacity:0.277" fill="#fefffe" d="M 122.5,33.5 C 123.94,34.3629 125.274,34.3629 126.5,33.5C 127.833,35.5 127.833,37.5 126.5,39.5C 124.997,38.9478 123.331,38.9478 121.5,39.5C 121.325,37.3792 121.659,35.3792 122.5,33.5 Z"/></g>
<g><path style="opacity:0.286" fill="#fefffe" d="M 131.5,33.5 C 136.159,33.0146 137.492,34.848 135.5,39C 133.866,39.4935 132.199,39.6602 130.5,39.5C 130.325,37.3792 130.659,35.3792 131.5,33.5 Z"/></g>
<g><path style="opacity:0.311" fill="#fefffe" d="M 141.5,33.5 C 143.513,34.4752 144.846,36.1419 145.5,38.5C 145.167,38.8333 144.833,39.1667 144.5,39.5C 143.167,38.1667 141.833,38.1667 140.5,39.5C 139.531,37.3835 139.864,35.3835 141.5,33.5 Z"/></g>
<g><path style="opacity:0.313" fill="#fefffe" d="M 148.5,33.5 C 149.978,33.238 151.311,33.5713 152.5,34.5C 150.775,40.8886 149.441,40.5553 148.5,33.5 Z"/></g>
<g><path style="opacity:0.252" fill="#fefffe" d="M 155.5,33.5 C 156.978,33.238 158.311,33.5713 159.5,34.5C 158.167,35.8333 158.167,37.1667 159.5,38.5C 158.167,39.8333 156.833,39.8333 155.5,38.5C 156.535,36.8716 156.535,35.205 155.5,33.5 Z"/></g>
<g><path style="opacity:0.277" fill="#fefffe" d="M 163.5,33.5 C 165.167,33.5 166.833,33.5 168.5,33.5C 168.5,35.5 168.5,37.5 168.5,39.5C 163.074,40.4161 161.407,38.4161 163.5,33.5 Z"/></g>
<g><path style="opacity:0.261" fill="#fefffe" d="M 171.5,33.5 C 173.331,34.0522 174.997,34.0522 176.5,33.5C 177.833,35.5 177.833,37.5 176.5,39.5C 174.997,38.9478 173.331,38.9478 171.5,39.5C 171.5,37.5 171.5,35.5 171.5,33.5 Z"/></g>
</svg>
